<svg id="Capa_1" enable-background="new 0 0 512 512" height="512" viewBox="0 0 512 512" width="512" xmlns="http://www.w3.org/2000/svg"><g><g><path d="m275.865 301.978c-5.249 0-10.767-1.405-16.183-4.261-3.25-1.726-4.144-1.726-7.371-.013-13.214 6.969-27.037 5.301-36.099-4.341-8.029-8.533-11.229-21.11-8.346-32.817 1.809-7.364 5.562-13.363 11.155-17.825l20.329-16.206c10.748-9.817 22.548-9.818 33.3.002l20.301 16.206c5.544 4.392 9.312 10.382 11.17 17.779 2.891 11.736-.32 24.313-8.369 32.866-5.325 5.694-12.326 8.61-19.887 8.61zm-19.885-25.534c4.269 0 8.539 1.197 13.055 3.594 2.938 1.55 8.453 3.578 12.134-.354 3.468-3.687 4.819-9.179 3.544-14.354-.781-3.11-2.082-5.268-4.209-6.952l-20.609-16.452c-.199-.16-.393-.326-.579-.501-3.191-2.975-3.439-2.975-6.631 0-.188.176-.383.344-.585.505l-20.607 16.429c-2.144 1.71-3.44 3.859-4.204 6.966-1.279 5.196.061 10.688 3.495 14.34 3.709 3.945 9.222 1.922 12.176.362 4.497-2.388 8.758-3.583 13.02-3.583z"/></g><g><path d="m278.039 203.961c-5.522 0-10-4.478-10-10v-10.838c0-5.522 4.478-10 10-10s10 4.478 10 10v10.838c0 5.522-4.477 10-10 10z"/></g><g><path d="m233.933 203.961c-5.522 0-10-4.478-10-10v-10.838c0-5.522 4.478-10 10-10s10 4.478 10 10v10.838c0 5.522-4.478 10-10 10z"/></g><g><path d="m201.741 234.464c-3.292 0-6.515-1.623-8.425-4.599l-4.28-6.668c-2.983-4.648-1.635-10.834 3.013-13.817 4.649-2.984 10.834-1.634 13.817 3.013l4.28 6.668c2.983 4.648 1.635 10.834-3.013 13.817-1.671 1.073-3.543 1.586-5.392 1.586z"/></g><g><path d="m310.23 234.464c-1.85 0-3.72-.512-5.393-1.586-4.647-2.983-5.996-9.169-3.013-13.817l4.28-6.668c2.981-4.646 9.167-6 13.817-3.013 4.647 2.983 5.996 9.169 3.013 13.817l-4.28 6.668c-1.908 2.975-5.132 4.599-8.424 4.599z"/></g><path d="m470.479 413.759c-5.053 0-10.005.909-14.661 2.669-9.456-11.012-23.381-17.565-38.176-17.565-2.241 0-4.45.154-6.628.438l17.865-115.732 16.893 16.91c6.797 6.804 15.862 10.551 25.527 10.552 9.665 0 18.731-3.748 25.528-10.552 14.068-14.081 14.068-36.994 0-51.077l-85.123-85.205c-3.903-3.907-10.234-3.91-14.142-.007s-3.91 10.234-.007 14.142l85.122 85.205c6.282 6.288 6.282 16.52.001 22.808-3.02 3.021-7.061 4.687-11.38 4.687-4.318-.001-8.358-1.665-11.378-4.687l-196.86-197.056c-1.875-1.878-4.42-2.933-7.074-2.933s-5.199 1.055-7.074 2.933l-196.874 197.064c-3 3.013-7.024 4.673-11.331 4.676-.004 0-.008 0-.013 0-4.316 0-8.355-1.664-11.375-4.686-6.281-6.288-6.281-16.52 0-22.808l226.666-226.886 78.049 78.124c3.903 3.907 10.234 3.91 14.142.007s3.91-10.234.007-14.142l-85.123-85.205c-1.875-1.878-4.42-2.933-7.074-2.933s-5.199 1.055-7.074 2.933l-233.742 233.967c-14.067 14.083-14.067 36.996.001 51.077 6.798 6.805 15.861 10.552 25.523 10.551h.027c9.657-.007 18.709-3.757 25.476-10.551l16.917-16.933 17.856 115.769c-2.196-.292-4.414-.451-6.641-.451-14.769 0-28.688 6.553-38.159 17.562-4.646-1.757-9.593-2.665-14.649-2.665-22.895 0-41.521 18.639-41.521 41.551 0 23.541 19.402 44.19 41.521 44.19h428.959c22.118 0 41.521-20.649 41.521-44.19-.001-22.912-18.627-41.551-41.522-41.551zm-214.494-303.253 155.367 155.517-32.955 213.477h-55.663v-86.584c0-36.82-29.943-66.775-66.749-66.775-36.789 0-66.72 29.955-66.72 66.775v86.584h-55.69l-32.932-213.502zm-46.719 366.384v-83.974c0-25.792 20.958-46.775 46.72-46.775 25.777 0 46.749 20.983 46.749 46.775v83.974zm-189.266-21.58c0-11.883 9.654-21.551 21.521-21.551 4.35 0 8.54 1.297 12.117 3.751 2.306 1.58 5.169 2.121 7.893 1.5 2.726-.626 5.064-2.363 6.449-4.792 5.404-9.472 15.501-15.355 26.35-15.355 3.399 0 6.756.58 9.915 1.672l9.095 58.966h-71.819c-11.263-.001-21.521-11.531-21.521-24.191zm450.479 24.19h-71.845l9.104-58.973c3.157-1.097 6.47-1.664 9.904-1.664 10.871 0 20.964 5.878 26.341 15.341 1.38 2.43 3.714 4.17 6.437 4.802 2.723.631 5.584.094 7.893-1.48 3.611-2.464 7.818-3.766 12.167-3.766 11.866 0 21.521 9.668 21.521 21.551-.001 12.659-10.259 24.189-21.522 24.189z"/><g><path d="m372.889 149.512c-1.496 0-3.016-.339-4.447-1.055l-.057-.028c-4.94-2.47-6.942-8.477-4.473-13.416 2.47-4.941 8.476-6.942 13.416-4.473s6.971 8.491 4.501 13.431c-1.754 3.508-5.277 5.541-8.94 5.541z"/></g></g></svg>