<?xml version="1.0" standalone="no"?>
<!DOCTYPE svg PUBLIC "-//W3C//DTD SVG 20010904//EN"
 "http://www.w3.org/TR/2001/REC-SVG-20010904/DTD/svg10.dtd">
<svg version="1.0" xmlns="http://www.w3.org/2000/svg"
 width="840.000000pt" height="859.000000pt" viewBox="0 0 840.000000 859.000000"
 preserveAspectRatio="xMidYMid meet">
<metadata>
Created by potrace 1.16, written by Peter Selinger 2001-2019
</metadata>
<g transform="translate(0.000000,859.000000) scale(0.100000,-0.100000)"
fill="#FF0000" stroke="none">
<path d="M4055 8539 c-82 -9 -262 -46 -280 -58 -5 -4 -37 -17 -70 -30 -106
-40 -191 -86 -318 -174 -72 -49 -242 -215 -298 -291 -94 -127 -119 -163 -145
-211 -14 -27 -36 -63 -48 -80 -12 -16 -35 -57 -51 -90 -17 -33 -33 -62 -36
-65 -4 -3 -22 -39 -40 -80 -18 -41 -37 -81 -42 -88 -10 -13 -18 -29 -267 -517
-430 -844 -932 -1858 -1205 -2430 -84 -175 -157 -331 -185 -390 -16 -33 -53
-112 -82 -175 -30 -63 -60 -130 -67 -147 -8 -18 -17 -33 -22 -33 -5 0 -9 -6
-9 -14 0 -19 -60 -150 -71 -154 -5 -2 -9 -10 -9 -17 0 -17 -38 -103 -156 -351
-19 -39 -34 -74 -34 -77 0 -4 -22 -53 -48 -110 -27 -56 -55 -118 -62 -137 -8
-19 -16 -37 -20 -40 -12 -11 -94 -220 -127 -325 -19 -60 -38 -118 -43 -127 -5
-9 -19 -70 -30 -135 -27 -152 -37 -402 -21 -553 13 -124 39 -269 51 -285 4 -5
20 -48 35 -95 27 -86 107 -258 169 -362 73 -123 243 -325 340 -403 144 -118
185 -149 228 -171 25 -13 48 -27 50 -31 6 -14 230 -120 303 -143 39 -13 75
-27 81 -32 19 -14 244 -58 334 -64 47 -3 94 -10 106 -16 34 -16 249 3 472 42
112 20 349 92 427 129 22 11 69 32 105 48 36 15 80 38 99 50 19 13 38 23 43
23 5 0 43 22 86 50 42 27 82 50 88 50 6 0 18 7 25 16 7 9 38 32 69 51 30 20
73 51 96 69 23 19 45 34 49 34 4 0 27 17 50 37 23 21 61 54 84 73 92 75 163
141 348 327 106 106 194 193 196 193 2 0 75 -72 163 -161 155 -157 306 -299
393 -369 24 -19 58 -47 76 -62 61 -52 233 -172 324 -227 31 -19 58 -37 61 -41
3 -4 34 -22 70 -40 36 -18 67 -36 70 -39 11 -14 231 -104 360 -147 140 -47
302 -79 447 -91 46 -3 86 -10 89 -15 7 -11 181 -11 188 1 3 4 47 11 98 15 98
7 313 47 345 65 10 6 59 26 108 45 368 140 677 397 888 740 60 98 142 275 171
372 15 49 32 98 37 109 5 11 21 85 35 165 31 179 41 399 25 537 -14 109 -49
283 -61 298 -4 6 -19 47 -33 92 -15 46 -40 111 -56 145 -16 35 -36 84 -45 110
-8 26 -27 69 -40 95 -27 53 -136 291 -136 297 0 2 -38 83 -85 179 -47 96 -85
181 -85 190 0 8 -8 25 -18 38 -10 13 -28 49 -41 79 -12 30 -40 92 -62 137 -22
46 -57 120 -78 165 -21 46 -59 126 -84 178 -25 52 -66 140 -92 195 -26 55 -83
174 -126 263 -44 90 -82 175 -85 188 -3 13 -10 24 -14 24 -4 0 -13 15 -20 33
-7 17 -39 85 -72 150 -32 64 -58 124 -58 132 0 8 -4 15 -9 15 -4 0 -23 35 -42
78 -18 42 -41 88 -51 101 -10 13 -18 28 -18 33 0 11 -596 1203 -726 1453 -79
151 -117 225 -199 390 -20 39 -40 77 -45 85 -5 8 -46 87 -91 175 -108 212
-135 263 -163 305 -13 20 -33 56 -46 80 -12 25 -26 47 -30 50 -5 3 -24 29 -43
57 -80 120 -264 311 -367 384 -19 13 -40 29 -48 36 -24 22 -181 104 -250 130
-37 15 -72 30 -77 34 -19 14 -186 47 -294 58 -116 12 -189 12 -306 0z m305
-548 c109 -17 181 -40 275 -87 105 -52 135 -75 230 -169 82 -82 94 -97 155
-190 65 -97 219 -383 311 -575 17 -36 36 -72 43 -80 6 -8 25 -44 41 -80 16
-36 34 -72 41 -80 6 -8 26 -49 44 -90 18 -41 36 -77 40 -80 10 -7 560 -1113
560 -1127 0 -6 6 -18 14 -25 7 -8 28 -48 46 -89 18 -41 39 -81 46 -90 8 -8 14
-19 14 -24 0 -4 26 -60 58 -124 33 -64 64 -133 71 -153 7 -21 16 -38 21 -38 5
0 12 -10 16 -22 6 -22 37 -86 207 -438 44 -91 99 -205 122 -255 24 -49 77
-161 119 -248 42 -86 76 -159 76 -162 0 -2 25 -57 56 -122 85 -179 133 -280
171 -363 19 -41 53 -112 74 -157 21 -44 39 -85 39 -90 0 -4 16 -39 35 -78 19
-38 53 -113 76 -165 23 -52 57 -128 76 -168 18 -40 43 -96 54 -125 11 -28 31
-74 44 -102 13 -27 34 -93 45 -145 12 -52 26 -104 31 -115 37 -85 37 -483 0
-570 -5 -11 -19 -58 -31 -105 -25 -96 -103 -267 -155 -338 -117 -160 -199
-247 -295 -313 -19 -13 -44 -31 -55 -41 -52 -44 -176 -103 -315 -151 -149 -51
-213 -60 -405 -61 -164 0 -329 20 -373 44 -10 5 -53 19 -97 30 -77 20 -102 30
-245 99 -276 134 -597 381 -886 682 -49 51 -113 117 -142 146 -52 53 -52 54
-37 83 8 16 24 34 35 40 11 6 20 15 20 21 0 8 62 91 136 182 8 9 31 41 51 70
20 28 39 54 42 57 8 6 158 228 185 273 11 18 41 65 68 106 26 41 48 78 48 84
0 6 9 20 19 31 23 26 189 347 224 436 14 36 35 83 45 105 10 22 30 74 43 115
13 41 26 77 30 80 11 8 90 327 107 430 10 64 15 167 16 315 1 219 -9 317 -39
395 -7 19 -25 72 -39 117 -23 71 -108 249 -126 263 -4 3 -26 34 -50 70 -47 71
-221 248 -291 298 -82 57 -234 140 -304 166 -38 15 -79 30 -90 36 -138 65
-540 92 -775 51 -63 -11 -129 -25 -147 -30 -55 -16 -247 -94 -263 -106 -8 -6
-42 -27 -75 -45 -203 -112 -423 -341 -518 -538 -18 -37 -34 -69 -38 -72 -12
-12 -77 -217 -99 -314 -21 -97 -31 -301 -20 -443 8 -106 22 -183 61 -343 28
-113 54 -209 59 -215 4 -5 22 -55 40 -110 18 -55 39 -109 45 -120 7 -11 25
-54 40 -95 16 -41 35 -86 44 -100 9 -14 30 -54 46 -90 17 -36 40 -80 53 -99
12 -19 22 -38 22 -43 0 -6 16 -35 35 -66 19 -32 45 -76 57 -99 32 -58 111
-187 119 -193 4 -3 23 -32 43 -65 35 -58 95 -147 116 -172 6 -7 25 -34 42 -60
17 -27 38 -55 45 -63 7 -8 42 -53 78 -100 36 -47 78 -101 93 -120 58 -71 58
-73 2 -132 -191 -200 -325 -331 -452 -440 -103 -87 -291 -228 -305 -228 -5 0
-18 -8 -29 -18 -20 -19 -144 -93 -204 -122 -168 -83 -289 -130 -332 -130 -10
0 -18 -4 -18 -9 0 -5 -42 -17 -92 -27 -131 -27 -475 -27 -596 -1 -46 10 -91
22 -100 27 -10 5 -46 19 -82 31 -64 21 -212 101 -301 162 -42 30 -198 181
-244 237 -42 50 -107 158 -151 250 -43 91 -94 257 -94 311 0 14 -5 30 -11 36
-18 18 -17 393 1 393 4 0 10 26 14 58 7 60 53 240 65 257 4 6 23 51 41 100 18
50 39 99 46 110 7 11 20 38 27 60 8 22 34 81 57 130 23 50 60 128 82 175 22
47 55 117 73 155 18 39 49 104 68 145 19 41 60 128 91 193 31 65 56 120 56
122 0 2 25 57 56 122 31 65 81 170 111 233 30 63 79 165 108 225 29 61 78 164
109 230 32 66 61 127 67 135 5 8 14 26 20 40 7 14 38 80 70 147 33 67 59 127
59 132 0 5 6 16 14 23 7 8 28 46 45 85 17 39 67 143 111 231 44 88 80 165 80
170 0 6 6 17 13 24 7 7 28 47 46 88 18 41 38 82 45 90 7 8 25 44 41 80 15 36
33 72 40 80 6 8 24 44 40 80 15 36 33 72 40 80 6 8 26 48 44 88 17 41 36 79
41 85 5 7 63 117 127 245 246 486 282 557 290 567 4 6 42 78 83 160 41 82 78
154 83 160 4 5 37 69 73 140 186 365 312 513 548 644 63 35 224 81 285 81 20
0 43 5 51 11 16 10 91 7 200 -10z m105 -3115 c38 -10 72 -21 75 -24 3 -4 30
-15 60 -26 66 -22 197 -108 265 -174 95 -93 187 -251 219 -377 39 -157 40
-422 0 -620 -16 -79 -107 -368 -122 -389 -5 -6 -19 -38 -32 -71 -33 -83 -202
-413 -218 -425 -4 -3 -18 -25 -31 -50 -13 -25 -38 -67 -56 -95 -141 -215 -168
-255 -180 -265 -8 -7 -15 -18 -15 -25 0 -7 -13 -27 -30 -45 -16 -18 -30 -35
-30 -37 0 -17 -147 -202 -159 -200 -8 1 -50 49 -93 107 -44 58 -90 117 -104
133 -13 15 -24 32 -24 37 0 5 -13 24 -28 42 -36 42 -242 363 -242 376 0 6 -6
17 -13 24 -29 29 -184 333 -224 438 -14 36 -28 70 -33 75 -4 6 -22 57 -40 115
-17 58 -36 113 -40 122 -17 32 -50 215 -60 337 -12 134 -1 311 25 412 37 141
139 307 247 400 92 79 213 152 276 164 17 4 32 11 32 15 0 7 78 27 170 44 60
11 337 -2 405 -18z"/>
</g>
</svg>
